<svg width="30" height="30" viewBox="0 0 30 30" fill="none" xmlns="http://www.w3.org/2000/svg">
<g id="bxl:instagram">
<path id="Vector" d="M14.9987 9.22125C13.4658 9.22125 11.9956 9.83022 10.9117 10.9142C9.82771 11.9981 9.21875 13.4683 9.21875 15.0013C9.21875 16.5342 9.82771 18.0044 10.9117 19.0883C11.9956 20.1723 13.4658 20.7813 14.9987 20.7813C16.5317 20.7813 18.0019 20.1723 19.0858 19.0883C20.1698 18.0044 20.7787 16.5342 20.7787 15.0013C20.7787 13.4683 20.1698 11.9981 19.0858 10.9142C18.0019 9.83022 16.5317 9.22125 14.9987 9.22125ZM14.9987 18.755C14.0029 18.755 13.0478 18.3594 12.3436 17.6552C11.6394 16.951 11.2437 15.9959 11.2437 15C11.2437 14.0041 11.6394 13.049 12.3436 12.3448C13.0478 11.6406 14.0029 11.245 14.9987 11.245C15.9946 11.245 16.9497 11.6406 17.6539 12.3448C18.3581 13.049 18.7537 14.0041 18.7537 15C18.7537 15.9959 18.3581 16.951 17.6539 17.6552C16.9497 18.3594 15.9946 18.755 14.9987 18.755Z" fill="white"/>
<path id="Vector_2" d="M21.0077 10.3563C21.7519 10.3563 22.3552 9.75296 22.3552 9.00875C22.3552 8.26455 21.7519 7.66125 21.0077 7.66125C20.2635 7.66125 19.6602 8.26455 19.6602 9.00875C19.6602 9.75296 20.2635 10.3563 21.0077 10.3563Z" fill="white"/>
<path id="Vector_3" d="M25.6667 7.63885C25.3773 6.89157 24.9351 6.21295 24.3683 5.64642C23.8016 5.07989 23.1228 4.63794 22.3754 4.34885C21.5009 4.02054 20.5769 3.84302 19.6429 3.82385C18.4392 3.77135 18.0579 3.75635 15.0054 3.75635C11.9529 3.75635 11.5617 3.75635 10.3679 3.82385C9.43467 3.84204 8.51138 4.0196 7.63793 4.34885C6.89035 4.6376 6.21139 5.07944 5.6446 5.64601C5.07781 6.21258 4.63572 6.89138 4.34668 7.63885C4.01831 8.51336 3.8412 9.43739 3.82293 10.3713C3.76918 11.5738 3.75293 11.9551 3.75293 15.0088C3.75293 18.0613 3.75293 18.4501 3.82293 19.6463C3.84168 20.5813 4.01793 21.5038 4.34668 22.3801C4.63653 23.1273 5.07905 23.8058 5.64597 24.3723C6.2129 24.9388 6.89176 25.3808 7.63918 25.6701C8.51097 26.0116 9.43464 26.2018 10.3704 26.2326C11.5742 26.2851 11.9554 26.3013 15.0079 26.3013C18.0604 26.3013 18.4517 26.3013 19.6454 26.2326C20.5793 26.2136 21.5032 26.0365 22.3779 25.7088C23.1251 25.4191 23.8037 24.9767 24.3704 24.4101C24.9371 23.8434 25.3794 23.1648 25.6692 22.4176C25.9979 21.5426 26.1742 20.6201 26.1929 19.6851C26.2467 18.4826 26.2629 18.1013 26.2629 15.0476C26.2629 11.9938 26.2629 11.6063 26.1929 10.4101C26.1784 9.46294 26.0003 8.52541 25.6667 7.63885ZM24.1442 19.5538C24.1361 20.2742 24.0046 20.9879 23.7554 21.6638C23.5677 22.1499 23.2803 22.5913 22.9118 22.9597C22.5432 23.328 22.1016 23.6152 21.6154 23.8026C20.947 24.0507 20.2409 24.1821 19.5279 24.1913C18.3404 24.2463 18.0054 24.2601 14.9604 24.2601C11.9129 24.2601 11.6017 24.2601 10.3917 24.1913C9.67909 24.1826 8.97334 24.0511 8.30543 23.8026C7.81754 23.6163 7.37418 23.3297 7.00404 22.9613C6.6339 22.5929 6.34522 22.1509 6.15668 21.6638C5.91099 20.9952 5.77957 20.2899 5.76793 19.5776C5.71418 18.3901 5.70168 18.0551 5.70168 15.0101C5.70168 11.9638 5.70168 11.6526 5.76793 10.4413C5.77601 9.72138 5.9075 9.00812 6.15668 8.3326C6.53793 7.34635 7.31918 6.5701 8.30543 6.1926C8.97367 5.94527 9.67921 5.8138 10.3917 5.80385C11.5804 5.7501 11.9142 5.7351 14.9604 5.7351C18.0067 5.7351 18.3192 5.7351 19.5279 5.80385C20.2409 5.81243 20.9471 5.94394 21.6154 6.1926C22.1016 6.38044 22.5431 6.66785 22.9116 7.03639C23.2802 7.40492 23.5676 7.84644 23.7554 8.3326C24.0011 9.00128 24.1325 9.70655 24.1442 10.4188C24.1979 11.6076 24.2117 11.9413 24.2117 14.9876C24.2117 18.0326 24.2117 18.3601 24.1579 19.5551H24.1442V19.5538Z" fill="white"/>
</g>
</svg>
