<svg width="91" height="27" viewBox="0 0 91 27" fill="none" xmlns="http://www.w3.org/2000/svg">
<path d="M13.3828 26H0.304688V0.792969H3.25781V23.3281H13.3828V26ZM26.1797 26.4219C22.6055 26.4219 19.7402 25.2441 17.584 22.8887C15.4395 20.5332 14.3672 17.4688 14.3672 13.6953C14.3672 9.64062 15.4629 6.40625 17.6543 3.99219C19.8457 1.57813 22.8281 0.371094 26.6016 0.371094C30.082 0.371094 32.8828 1.54297 35.0039 3.88672C37.1367 6.23047 38.2031 9.29492 38.2031 13.0801C38.2031 17.1934 37.1133 20.4453 34.9336 22.8359C32.7539 25.2266 29.8359 26.4219 26.1797 26.4219ZM26.3906 3.04297C23.7422 3.04297 21.5918 3.99805 19.9395 5.9082C18.2871 7.81836 17.4609 10.3262 17.4609 13.4316C17.4609 16.5371 18.2637 19.0391 19.8691 20.9375C21.4863 22.8242 23.5898 23.7676 26.1797 23.7676C28.9453 23.7676 31.125 22.8652 32.7188 21.0605C34.3125 19.2559 35.1094 16.7305 35.1094 13.4844C35.1094 10.1562 34.3359 7.58398 32.7891 5.76758C31.2422 3.95117 29.1094 3.04297 26.3906 3.04297ZM62.0039 24.2773C59.4727 25.707 56.6602 26.4219 53.5664 26.4219C49.9688 26.4219 47.0566 25.2617 44.8301 22.9414C42.6152 20.6211 41.5078 17.5508 41.5078 13.7305C41.5078 9.82812 42.7383 6.62891 45.1992 4.13281C47.6719 1.625 50.8008 0.371094 54.5859 0.371094C57.3281 0.371094 59.6309 0.816406 61.4941 1.70703V4.97656C59.4551 3.6875 57.041 3.04297 54.252 3.04297C51.4277 3.04297 49.1133 4.01562 47.3086 5.96094C45.5039 7.90625 44.6016 10.4258 44.6016 13.5195C44.6016 16.707 45.4395 19.2148 47.1152 21.043C48.791 22.8594 51.0645 23.7676 53.9355 23.7676C55.9043 23.7676 57.6094 23.375 59.0508 22.5898V15.5234H53.5312V12.8516H62.0039V24.2773ZM78.0352 26.4219C74.4609 26.4219 71.5957 25.2441 69.4395 22.8887C67.2949 20.5332 66.2227 17.4688 66.2227 13.6953C66.2227 9.64062 67.3184 6.40625 69.5098 3.99219C71.7012 1.57813 74.6836 0.371094 78.457 0.371094C81.9375 0.371094 84.7383 1.54297 86.8594 3.88672C88.9922 6.23047 90.0586 9.29492 90.0586 13.0801C90.0586 17.1934 88.9688 20.4453 86.7891 22.8359C84.6094 25.2266 81.6914 26.4219 78.0352 26.4219ZM78.2461 3.04297C75.5977 3.04297 73.4473 3.99805 71.7949 5.9082C70.1426 7.81836 69.3164 10.3262 69.3164 13.4316C69.3164 16.5371 70.1191 19.0391 71.7246 20.9375C73.3418 22.8242 75.4453 23.7676 78.0352 23.7676C80.8008 23.7676 82.9805 22.8652 84.5742 21.0605C86.168 19.2559 86.9648 16.7305 86.9648 13.4844C86.9648 10.1562 86.1914 7.58398 84.6445 5.76758C83.0977 3.95117 80.9648 3.04297 78.2461 3.04297Z" fill="#8E593A"/>
</svg>
