<svg width="30" height="30" viewBox="0 0 30 30" fill="none" xmlns="http://www.w3.org/2000/svg">
<g id="mdi:odnoklassniki">
<path id="Vector" d="M22.2876 15.925C21.9376 15.2125 20.9501 14.6125 19.6376 15.625C17.8501 17.05 15.0001 17.05 15.0001 17.05C15.0001 17.05 12.1501 17.05 10.3626 15.625C9.05006 14.6125 8.06256 15.2125 7.71256 15.925C7.08756 17.175 7.78756 17.7875 9.37506 18.8C10.7376 19.675 12.6001 20 13.8001 20.125L12.8001 21.125C11.3751 22.5375 10.0001 23.9 9.06256 24.85C8.50006 25.425 8.50006 26.3375 9.06256 26.875L9.23756 27.075C9.80006 27.6375 10.7251 27.6375 11.2876 27.075L15.0001 23.35C16.4376 24.7625 17.8001 26.125 18.7501 27.075C19.3126 27.6375 20.2251 27.6375 20.8001 27.075L20.9626 26.875C21.5376 26.3375 21.5376 25.425 20.9626 24.85L17.2376 21.125L16.2501 20.1125C17.4376 20 19.2751 19.6625 20.6251 18.8C22.2126 17.7875 22.9126 17.175 22.2876 15.925ZM15.0001 5.7125C16.7251 5.7125 18.1251 7.1125 18.1251 8.825C18.1251 10.55 16.7251 11.9375 15.0001 11.9375C13.2751 11.9375 11.8751 10.55 11.8751 8.825C11.8751 7.1125 13.2751 5.7125 15.0001 5.7125ZM15.0001 15.15C18.5001 15.15 21.3251 12.325 21.3251 8.825C21.3251 7.14751 20.6587 5.53872 19.4725 4.35255C18.2863 3.16638 16.6776 2.5 15.0001 2.5C13.3226 2.5 11.7138 3.16638 10.5276 4.35255C9.34145 5.53872 8.67506 7.14751 8.67506 8.825C8.67506 12.325 11.5001 15.15 15.0001 15.15Z" fill="white"/>
</g>
</svg>
