<svg width="30" height="30" viewBox="0 0 30 30" fill="none" xmlns="http://www.w3.org/2000/svg">
<path d="M25.8873 4.56814C25.8873 4.56814 28.3155 3.62126 28.1123 5.92064C28.0455 6.86751 27.4386 10.1819 26.9661 13.7663L25.3473 24.385C25.3473 24.385 25.2123 25.9406 23.998 26.2113C22.7842 26.4813 20.963 25.2644 20.6255 24.9938C20.3555 24.7906 15.5667 21.7469 13.8805 20.2594C13.408 19.8531 12.868 19.0419 13.948 18.095L21.0298 11.3313C21.8392 10.52 22.6486 8.62626 19.2761 10.9256L9.83233 17.3506C9.83233 17.3506 8.75296 18.0275 6.72983 17.4188L2.34483 16.0656C2.34483 16.0656 0.726082 15.0513 3.49171 14.0369C10.2373 10.8581 18.5342 7.61189 25.8861 4.56814H25.8873Z" fill="white"/>
</svg>
